<?xml version="1.0" encoding="utf-8"?>
<svg version="1.1" xmlns="http://www.w3.org/2000/svg" xmlns:xlink="http://www.w3.org/1999/xlink" width="760" height="760" viewBox="-380 -80 760 760">
<g transform="scale(1,-1) translate(0,-600)">
<rect x="-380" y="-80" width="760" height="760" fill="white" stroke="none"/>
<path d="M -310 50 L -310 230 -180 230 C -102 230 -50 210 -50 180 C -50 144 -102 120 -180 120 L -310 120" fill="none" stroke="black" stroke-linecap="round" stroke-linejoin="round" stroke-width="20"/>
<path d="M 310 230 L 180 230 C 102 230 50 210 50 180 C 50 144 102 120 180 120 C 258 120 310 104 310 80 C 310 62 258 50 180 50 L 50 50" fill="none" stroke="black" stroke-linecap="round" stroke-linejoin="round" stroke-width="20"/>
<polygon points="-360,280,360,280,360,600,0,280,-360,600,-360,280" fill="#B0B0B0" stroke="none"/>
<path d="M 0 280 L 0 0 360 0 360 600 -360 600 -360 0 0 0" fill="none" stroke="black" stroke-linecap="round" stroke-linejoin="round" stroke-width="2"/>
</g>
</svg>
